<svg width="143" height="88" viewBox="0 0 143 88" fill="none" xmlns="http://www.w3.org/2000/svg">
<mask id="path-1-outside-1_356_29887" maskUnits="userSpaceOnUse" x="-0.999512" y="0" width="144" height="88" fill="black">
<rect fill="white" x="-0.999512" width="144" height="88"/>
<path d="M47.2999 10.0382C49.6547 9.86867 52.0161 10.2655 54.1862 11.1952C57.0964 12.4636 59.7817 14.9614 60.9561 17.9412C62.3636 17.5031 63.44 17.1142 64.904 16.7577C68.3925 15.9082 71.4458 15.6766 74.984 15.6506C82.9168 15.592 90.3049 17.3332 97.1483 21.4725C105.79 26.6993 111.654 34.6296 115.008 44.1034C115.793 46.3218 116.156 47.8963 116.705 50.1629C119.144 50.3816 122.749 51.3347 124.975 52.3859C127.782 53.7176 130.47 55.7686 131.543 58.7881C132.864 62.6543 131.218 66.2171 127.953 68.4166C126.847 69.1608 125.867 69.7718 124.625 70.2644C115.701 73.8022 105.609 72.91 96.2015 73.0865C89.6962 73.2087 83.2753 74.109 77.0936 76.1319C75.5553 76.6355 74.1139 77.3377 72.5859 77.8633C73.1968 77.1272 73.9263 76.2115 74.655 75.6071C80.8491 70.4682 90.2747 69.7726 98.0161 69.5856C100.712 69.5208 103.428 69.6187 106.083 69.5318C109.515 69.4288 112.932 69.0358 116.298 68.3577C119.711 67.6378 125.646 65.9123 126.352 61.865C126.816 59.207 124.609 57.1811 122.424 56.1329C120.855 55.3805 119.372 55.0669 117.655 54.807C117.9 57.0066 118.236 59.1017 118.299 61.349C118.339 62.7735 118.331 64.181 118.326 65.6046L107.316 65.612L76.7477 65.6246C76.7787 62.0638 76.7426 58.4582 76.7264 54.8953L80.7475 54.9012C80.7107 57.1664 80.7438 59.5029 80.7483 61.7724L113.118 61.6951C113.124 61.0503 113.102 60.3575 113.091 59.7091C110.413 59.6456 107.438 59.7038 104.743 59.7032L88.3329 59.706C88.3263 56.4398 88.3396 53.1736 88.3749 49.9082C82.8476 49.794 76.9391 49.9044 71.3736 49.9038L71.3684 65.7857C69.5466 65.8372 67.5468 65.8025 65.7121 65.8032L55.422 65.8078C47.7297 65.8099 39.8709 65.8851 32.1923 65.7783C33.6823 61.598 36.5319 59.3961 39.9031 56.8682C37.39 56.9882 34.6545 56.8654 32.134 56.9161C25.5889 57.0472 19.4452 56.4892 13.8337 52.7468C12.3652 51.7669 11.3553 50.8769 10.0005 49.7271C13.5925 41.6136 18.6195 34.7849 25.5977 29.2295C27.4126 27.7847 29.0906 26.8012 30.9121 25.492C32.7675 17.0149 38.3367 10.7266 47.2999 10.0382ZM55.7102 17.9731C53.9708 15.4325 50.6358 13.9194 47.5788 14.3043C43.8431 14.7073 41.003 16.2246 38.5963 19.1569C36.8831 21.2441 36.041 23.488 35.3806 26.0864C35.22 26.7181 35.114 27.4394 34.9564 28.0501C34.201 28.5725 33.3479 29.0722 32.5639 29.5533C25.5344 33.8669 20.0323 40.1389 16.1782 47.387C15.984 47.7521 15.7751 48.1327 15.564 48.4904C22.9836 53.1162 27.9385 52.601 36.4156 52.5788C39.2186 52.5723 42.8095 52.6981 45.558 52.5274C45.56 50.6399 45.5213 48.6008 45.5683 46.7266C46.9909 46.6979 48.4138 46.6885 49.8367 46.6995L49.8353 55.5749C49.1499 56.046 48.2917 56.4951 47.556 56.8963C44.8698 58.3605 42.493 59.988 40.1096 61.9093C41.163 61.8188 42.4898 61.8519 43.5631 61.8519L48.8346 61.8541C54.9193 61.8563 61.112 61.9131 67.1905 61.8452C67.2024 56.7064 67.0909 51.2553 67.203 46.158L88.3544 46.145L88.3293 36.2084L92.316 36.206C92.3212 39.4805 92.2674 42.8882 92.3248 46.1447C96.5616 46.1465 101.012 46.0858 105.232 46.1559L105.217 49.8899L92.3219 49.8907L92.3174 55.7015L112.722 55.6684C112.044 51.3621 111.478 47.3988 109.795 43.3151C109.509 42.6211 109.15 41.7943 108.918 41.0887L97.8977 41.0809L97.8962 37.3434L99.9256 37.3497L106.992 37.3376C105.683 35.1377 103.821 32.4913 102.029 30.6584L101.99 30.6188L82.1904 30.6127L82.2088 41.1475C75.3418 41.1034 68.3847 41.2182 61.5316 41.1141C61.5713 46.4411 61.4416 52.0695 61.5768 57.3519C60.1631 57.3608 58.7494 57.3608 57.3357 57.3534L57.3398 41.1138C52.3655 41.1365 47.1191 41.0168 42.1852 41.1149L42.1885 37.2543C46.3408 37.2892 50.493 37.294 54.6453 37.2689L78.1007 37.2958L78.1052 26.6977C84.4266 26.7009 91.0389 26.8021 97.3294 26.6761C91.9061 22.6809 85.435 20.3526 78.7096 19.9759C76.7898 19.8523 74.6662 19.9219 72.7288 19.9506L72.717 31.1771C71.3648 31.138 70.0118 31.1243 68.659 31.136C68.6575 27.5865 68.7211 23.8232 68.6445 20.2857C66.4085 20.7024 64.1947 21.2299 62.0112 21.8663C61.9697 22.5966 62.003 23.4146 61.9118 24.1235C61.6086 26.4814 60.6537 28.8263 58.8515 30.426C56.3534 32.6432 53.5268 32.6871 50.4038 32.6679C53.3455 30.6667 56.2967 27.7108 56.999 24.0886C57.4067 21.9596 56.9423 19.7562 55.7102 17.9731Z"/>
</mask>
<path d="M47.2999 10.0382C49.6547 9.86867 52.0161 10.2655 54.1862 11.1952C57.0964 12.4636 59.7817 14.9614 60.9561 17.9412C62.3636 17.5031 63.44 17.1142 64.904 16.7577C68.3925 15.9082 71.4458 15.6766 74.984 15.6506C82.9168 15.592 90.3049 17.3332 97.1483 21.4725C105.79 26.6993 111.654 34.6296 115.008 44.1034C115.793 46.3218 116.156 47.8963 116.705 50.1629C119.144 50.3816 122.749 51.3347 124.975 52.3859C127.782 53.7176 130.47 55.7686 131.543 58.7881C132.864 62.6543 131.218 66.2171 127.953 68.4166C126.847 69.1608 125.867 69.7718 124.625 70.2644C115.701 73.8022 105.609 72.91 96.2015 73.0865C89.6962 73.2087 83.2753 74.109 77.0936 76.1319C75.5553 76.6355 74.1139 77.3377 72.5859 77.8633C73.1968 77.1272 73.9263 76.2115 74.655 75.6071C80.8491 70.4682 90.2747 69.7726 98.0161 69.5856C100.712 69.5208 103.428 69.6187 106.083 69.5318C109.515 69.4288 112.932 69.0358 116.298 68.3577C119.711 67.6378 125.646 65.9123 126.352 61.865C126.816 59.207 124.609 57.1811 122.424 56.1329C120.855 55.3805 119.372 55.0669 117.655 54.807C117.9 57.0066 118.236 59.1017 118.299 61.349C118.339 62.7735 118.331 64.181 118.326 65.6046L107.316 65.612L76.7477 65.6246C76.7787 62.0638 76.7426 58.4582 76.7264 54.8953L80.7475 54.9012C80.7107 57.1664 80.7438 59.5029 80.7483 61.7724L113.118 61.6951C113.124 61.0503 113.102 60.3575 113.091 59.7091C110.413 59.6456 107.438 59.7038 104.743 59.7032L88.3329 59.706C88.3263 56.4398 88.3396 53.1736 88.3749 49.9082C82.8476 49.794 76.9391 49.9044 71.3736 49.9038L71.3684 65.7857C69.5466 65.8372 67.5468 65.8025 65.7121 65.8032L55.422 65.8078C47.7297 65.8099 39.8709 65.8851 32.1923 65.7783C33.6823 61.598 36.5319 59.3961 39.9031 56.8682C37.39 56.9882 34.6545 56.8654 32.134 56.9161C25.5889 57.0472 19.4452 56.4892 13.8337 52.7468C12.3652 51.7669 11.3553 50.8769 10.0005 49.7271C13.5925 41.6136 18.6195 34.7849 25.5977 29.2295C27.4126 27.7847 29.0906 26.8012 30.9121 25.492C32.7675 17.0149 38.3367 10.7266 47.2999 10.0382ZM55.7102 17.9731C53.9708 15.4325 50.6358 13.9194 47.5788 14.3043C43.8431 14.7073 41.003 16.2246 38.5963 19.1569C36.8831 21.2441 36.041 23.488 35.3806 26.0864C35.22 26.7181 35.114 27.4394 34.9564 28.0501C34.201 28.5725 33.3479 29.0722 32.5639 29.5533C25.5344 33.8669 20.0323 40.1389 16.1782 47.387C15.984 47.7521 15.7751 48.1327 15.564 48.4904C22.9836 53.1162 27.9385 52.601 36.4156 52.5788C39.2186 52.5723 42.8095 52.6981 45.558 52.5274C45.56 50.6399 45.5213 48.6008 45.5683 46.7266C46.9909 46.6979 48.4138 46.6885 49.8367 46.6995L49.8353 55.5749C49.1499 56.046 48.2917 56.4951 47.556 56.8963C44.8698 58.3605 42.493 59.988 40.1096 61.9093C41.163 61.8188 42.4898 61.8519 43.5631 61.8519L48.8346 61.8541C54.9193 61.8563 61.112 61.9131 67.1905 61.8452C67.2024 56.7064 67.0909 51.2553 67.203 46.158L88.3544 46.145L88.3293 36.2084L92.316 36.206C92.3212 39.4805 92.2674 42.8882 92.3248 46.1447C96.5616 46.1465 101.012 46.0858 105.232 46.1559L105.217 49.8899L92.3219 49.8907L92.3174 55.7015L112.722 55.6684C112.044 51.3621 111.478 47.3988 109.795 43.3151C109.509 42.6211 109.15 41.7943 108.918 41.0887L97.8977 41.0809L97.8962 37.3434L99.9256 37.3497L106.992 37.3376C105.683 35.1377 103.821 32.4913 102.029 30.6584L101.99 30.6188L82.1904 30.6127L82.2088 41.1475C75.3418 41.1034 68.3847 41.2182 61.5316 41.1141C61.5713 46.4411 61.4416 52.0695 61.5768 57.3519C60.1631 57.3608 58.7494 57.3608 57.3357 57.3534L57.3398 41.1138C52.3655 41.1365 47.1191 41.0168 42.1852 41.1149L42.1885 37.2543C46.3408 37.2892 50.493 37.294 54.6453 37.2689L78.1007 37.2958L78.1052 26.6977C84.4266 26.7009 91.0389 26.8021 97.3294 26.6761C91.9061 22.6809 85.435 20.3526 78.7096 19.9759C76.7898 19.8523 74.6662 19.9219 72.7288 19.9506L72.717 31.1771C71.3648 31.138 70.0118 31.1243 68.659 31.136C68.6575 27.5865 68.7211 23.8232 68.6445 20.2857C66.4085 20.7024 64.1947 21.2299 62.0112 21.8663C61.9697 22.5966 62.003 23.4146 61.9118 24.1235C61.6086 26.4814 60.6537 28.8263 58.8515 30.426C56.3534 32.6432 53.5268 32.6871 50.4038 32.6679C53.3455 30.6667 56.2967 27.7108 56.999 24.0886C57.4067 21.9596 56.9423 19.7562 55.7102 17.9731Z" fill="#0A0A0B"/>
<path d="M47.2999 10.0382C49.6547 9.86867 52.0161 10.2655 54.1862 11.1952C57.0964 12.4636 59.7817 14.9614 60.9561 17.9412C62.3636 17.5031 63.44 17.1142 64.904 16.7577C68.3925 15.9082 71.4458 15.6766 74.984 15.6506C82.9168 15.592 90.3049 17.3332 97.1483 21.4725C105.79 26.6993 111.654 34.6296 115.008 44.1034C115.793 46.3218 116.156 47.8963 116.705 50.1629C119.144 50.3816 122.749 51.3347 124.975 52.3859C127.782 53.7176 130.47 55.7686 131.543 58.7881C132.864 62.6543 131.218 66.2171 127.953 68.4166C126.847 69.1608 125.867 69.7718 124.625 70.2644C115.701 73.8022 105.609 72.91 96.2015 73.0865C89.6962 73.2087 83.2753 74.109 77.0936 76.1319C75.5553 76.6355 74.1139 77.3377 72.5859 77.8633C73.1968 77.1272 73.9263 76.2115 74.655 75.6071C80.8491 70.4682 90.2747 69.7726 98.0161 69.5856C100.712 69.5208 103.428 69.6187 106.083 69.5318C109.515 69.4288 112.932 69.0358 116.298 68.3577C119.711 67.6378 125.646 65.9123 126.352 61.865C126.816 59.207 124.609 57.1811 122.424 56.1329C120.855 55.3805 119.372 55.0669 117.655 54.807C117.9 57.0066 118.236 59.1017 118.299 61.349C118.339 62.7735 118.331 64.181 118.326 65.6046L107.316 65.612L76.7477 65.6246C76.7787 62.0638 76.7426 58.4582 76.7264 54.8953L80.7475 54.9012C80.7107 57.1664 80.7438 59.5029 80.7483 61.7724L113.118 61.6951C113.124 61.0503 113.102 60.3575 113.091 59.7091C110.413 59.6456 107.438 59.7038 104.743 59.7032L88.3329 59.706C88.3263 56.4398 88.3396 53.1736 88.3749 49.9082C82.8476 49.794 76.9391 49.9044 71.3736 49.9038L71.3684 65.7857C69.5466 65.8372 67.5468 65.8025 65.7121 65.8032L55.422 65.8078C47.7297 65.8099 39.8709 65.8851 32.1923 65.7783C33.6823 61.598 36.5319 59.3961 39.9031 56.8682C37.39 56.9882 34.6545 56.8654 32.134 56.9161C25.5889 57.0472 19.4452 56.4892 13.8337 52.7468C12.3652 51.7669 11.3553 50.8769 10.0005 49.7271C13.5925 41.6136 18.6195 34.7849 25.5977 29.2295C27.4126 27.7847 29.0906 26.8012 30.9121 25.492C32.7675 17.0149 38.3367 10.7266 47.2999 10.0382ZM55.7102 17.9731C53.9708 15.4325 50.6358 13.9194 47.5788 14.3043C43.8431 14.7073 41.003 16.2246 38.5963 19.1569C36.8831 21.2441 36.041 23.488 35.3806 26.0864C35.22 26.7181 35.114 27.4394 34.9564 28.0501C34.201 28.5725 33.3479 29.0722 32.5639 29.5533C25.5344 33.8669 20.0323 40.1389 16.1782 47.387C15.984 47.7521 15.7751 48.1327 15.564 48.4904C22.9836 53.1162 27.9385 52.601 36.4156 52.5788C39.2186 52.5723 42.8095 52.6981 45.558 52.5274C45.56 50.6399 45.5213 48.6008 45.5683 46.7266C46.9909 46.6979 48.4138 46.6885 49.8367 46.6995L49.8353 55.5749C49.1499 56.046 48.2917 56.4951 47.556 56.8963C44.8698 58.3605 42.493 59.988 40.1096 61.9093C41.163 61.8188 42.4898 61.8519 43.5631 61.8519L48.8346 61.8541C54.9193 61.8563 61.112 61.9131 67.1905 61.8452C67.2024 56.7064 67.0909 51.2553 67.203 46.158L88.3544 46.145L88.3293 36.2084L92.316 36.206C92.3212 39.4805 92.2674 42.8882 92.3248 46.1447C96.5616 46.1465 101.012 46.0858 105.232 46.1559L105.217 49.8899L92.3219 49.8907L92.3174 55.7015L112.722 55.6684C112.044 51.3621 111.478 47.3988 109.795 43.3151C109.509 42.6211 109.15 41.7943 108.918 41.0887L97.8977 41.0809L97.8962 37.3434L99.9256 37.3497L106.992 37.3376C105.683 35.1377 103.821 32.4913 102.029 30.6584L101.99 30.6188L82.1904 30.6127L82.2088 41.1475C75.3418 41.1034 68.3847 41.2182 61.5316 41.1141C61.5713 46.4411 61.4416 52.0695 61.5768 57.3519C60.1631 57.3608 58.7494 57.3608 57.3357 57.3534L57.3398 41.1138C52.3655 41.1365 47.1191 41.0168 42.1852 41.1149L42.1885 37.2543C46.3408 37.2892 50.493 37.294 54.6453 37.2689L78.1007 37.2958L78.1052 26.6977C84.4266 26.7009 91.0389 26.8021 97.3294 26.6761C91.9061 22.6809 85.435 20.3526 78.7096 19.9759C76.7898 19.8523 74.6662 19.9219 72.7288 19.9506L72.717 31.1771C71.3648 31.138 70.0118 31.1243 68.659 31.136C68.6575 27.5865 68.7211 23.8232 68.6445 20.2857C66.4085 20.7024 64.1947 21.2299 62.0112 21.8663C61.9697 22.5966 62.003 23.4146 61.9118 24.1235C61.6086 26.4814 60.6537 28.8263 58.8515 30.426C56.3534 32.6432 53.5268 32.6871 50.4038 32.6679C53.3455 30.6667 56.2967 27.7108 56.999 24.0886C57.4067 21.9596 56.9423 19.7562 55.7102 17.9731Z" stroke="white" stroke-width="20" stroke-linejoin="round" mask="url(#path-1-outside-1_356_29887)"/>
<path d="M31.5104 35.7292C33.8064 35.3894 35.9418 36.9791 36.2749 39.2763C36.608 41.5735 35.012 43.7043 32.714 44.0306C30.4256 44.3555 28.3057 42.7675 27.9741 40.48C27.6424 38.1926 29.2239 36.0679 31.5104 35.7292Z" fill="#F97316"/>
</svg>
